<?xml version="1.0" encoding="utf-8"?>
<!-- Generator: Adobe Illustrator 23.0.6, SVG Export Plug-In . SVG Version: 6.00 Build 0)  -->
<svg version="1.1" id="Layer_1" xmlns="http://www.w3.org/2000/svg" xmlns:xlink="http://www.w3.org/1999/xlink" x="0px" y="0px"
	 viewBox="0 0 1500 1500" style="enable-background:new 0 0 1500 1500;" xml:space="preserve">
<style type="text/css">
	.st0{fill:#70A5D1;}
	.st1{fill:#FFFFFF;}
</style>
<g>
	<path class="st0" d="M1279.1,1500H220.9C98.9,1500,0,1401.1,0,1279.1V220.9C0,98.9,98.9,0,220.9,0H1279.1
		c122,0,220.9,98.9,220.9,220.9V1279.1C1500,1401.1,1401.1,1500,1279.1,1500z"/>
	<g>
		<g>
			<g>
				<path class="st1" d="M720.35,734.74l-27-27l379.19-297.89c10.2-8.01,18.52-23.8,19.37-36.74l11.48-175.32
					c0.51-7.84-2.27-15.42-7.62-20.77c-5.36-5.36-12.93-8.14-20.77-7.62l-175.32,11.47c-12.94,0.85-28.73,9.18-36.74,19.37
					L565.04,579.43l-27-27c-13-13-34.15-13-47.15,0l-29.34,29.34c-13,13-13,34.15,0,47.15l57.36,57.36l-51.22,51.22
					c-26.21-4.73-54.26,2.99-74.48,23.21c-32.77,32.77-32.77,86.09,0,118.86s86.09,32.77,118.86,0
					c20.22-20.22,27.95-48.26,23.21-74.48l51.22-51.22l57.36,57.36c13,13,34.15,13,47.15,0l29.34-29.34
					C733.35,768.89,733.35,747.74,720.35,734.74z"/>
			</g>
			<g>
				<path class="st1" d="M779.65,781.88l29.34,29.34c13,13,34.15,13,47.15,0l57.36-57.36l51.22,51.22
					c-4.73,26.21,2.99,54.26,23.21,74.48c32.77,32.77,86.09,32.77,118.86,0c32.77-32.77,32.77-86.09,0-118.86
					c-20.22-20.22-48.26-27.95-74.48-23.21l-51.22-51.22l57.36-57.36c13-13,13-34.15,0-47.15l-29.34-29.34c-13-13-34.15-13-47.15,0
					l-27,27L637.07,200.23c-8.01-10.19-23.8-18.52-36.74-19.37l-175.32-11.47c-7.84-0.51-15.41,2.26-20.77,7.62
					c-5.36,5.36-8.14,12.93-7.62,20.77l11.48,175.32c0.85,12.94,9.17,28.73,19.37,36.74l379.19,297.89l-27,27
					C766.65,747.74,766.65,768.89,779.65,781.88z"/>
			</g>
		</g>
		<g>
			<path class="st1" d="M509.41,1315.67c-24.25-11.96-42.69-28.67-55.3-50.13c-12.62-21.46-18.92-46.45-18.92-74.96
				c0-38.01,8.6-72.74,25.8-104.2c17.2-31.46,41.69-56.44,73.48-74.96c31.78-18.51,68.48-27.77,110.1-27.77
				c27.52,0,51.93,4.35,73.24,13.03c21.3,8.69,37.68,21.06,49.15,37.11l-25.56,22.61c-21.96-26.86-55.22-40.3-99.78-40.3
				c-33.75,0-63.57,7.79-89.46,23.35c-25.89,15.57-45.88,36.46-59.96,62.67c-14.09,26.22-21.14,55.05-21.14,86.51
				c0,34.41,11.06,61.77,33.18,82.08c22.12,20.32,53.65,30.47,94.62,30.47c44.89,0,81.26-13.59,109.12-40.79l21.14,24.08
				c-15.08,15.73-34.24,27.85-57.51,36.37c-23.27,8.52-48.5,12.78-75.69,12.78C562.5,1333.61,533.66,1327.63,509.41,1315.67z"/>
		</g>
		<g>
			<path class="st1" d="M906.02,986.6h35.88l-62.42,312.6h192.67l-6.39,31.46H837.21L906.02,986.6z"/>
		</g>
	</g>
</g>
<g>
</g>
<g>
</g>
<g>
</g>
<g>
</g>
<g>
</g>
</svg>
